<svg width="430" height="430" viewBox="0 0 430 430" fill="none" xmlns="http://www.w3.org/2000/svg">
<rect width="430" height="430" rx="101" fill="white"/>
<ellipse cx="215" cy="215" rx="162" ry="163" fill="url(#paint0_radial)"/>
<circle cx="215" cy="215" r="132" fill="white"/>
<circle cx="215" cy="215" r="103" fill="#1D3E53"/>
<circle cx="215" cy="215" r="77" fill="#2D4F64"/>
<circle cx="215" cy="215" r="56" fill="#3D5E73"/>
<circle cx="215" cy="215" r="35" fill="#4D6D81"/>
<circle cx="215" cy="215" r="17" fill="#1D3E53"/>
<path d="M102.673 249.158C139.01 258.038 179.038 248.857 208.36 221.216C238.595 192.714 249.908 151.688 241.802 113.926L181.293 95.8903L181.431 95.4304L87.389 184.082L102.673 249.158Z" fill="url(#paint1_linear)"/>
<circle cx="364" cy="60" r="23" fill="#1D3E53"/>
<rect y="99" width="27" height="232" rx="13.5" fill="#1D3E53"/>
<defs>
<radialGradient id="paint0_radial" cx="0" cy="0" r="1" gradientUnits="userSpaceOnUse" gradientTransform="translate(215 215) rotate(90) scale(163 162)">
<stop/>
<stop offset="0.890625" stop-color="#141414" stop-opacity="0"/>
</radialGradient>
<linearGradient id="paint1_linear" x1="120" y1="134" x2="209.036" y2="220.579" gradientUnits="userSpaceOnUse">
<stop offset="0.114501" stop-color="white" stop-opacity="0.9"/>
<stop offset="0.679479" stop-color="white" stop-opacity="0.1"/>
</linearGradient>
</defs>
</svg>
